<svg width="25" height="25" viewBox="0 0 25 25" fill="none" xmlns="http://www.w3.org/2000/svg">
<path d="M9.56282 22.5002C9.89434 22.5002 10.2123 22.6319 10.4467 22.8664C10.6811 23.1008 10.8128 23.4187 10.8128 23.7502C10.8128 24.0818 10.6811 24.3997 10.4467 24.6341C10.2123 24.8685 9.89434 25.0002 9.56282 25.0002C9.2313 25.0002 8.91335 24.8685 8.67893 24.6341C8.44451 24.3997 8.31282 24.0818 8.31282 23.7502C8.31282 23.4187 8.44451 23.1008 8.67893 22.8664C8.91335 22.6319 9.2313 22.5002 9.56282 22.5002ZM18.3128 22.5002C18.6443 22.5002 18.9623 22.6319 19.1967 22.8664C19.4311 23.1008 19.5628 23.4187 19.5628 23.7502C19.5628 24.0818 19.4311 24.3997 19.1967 24.6341C18.9623 24.8685 18.6443 25.0002 18.3128 25.0002C17.9813 25.0002 17.6634 24.8685 17.4289 24.6341C17.1945 24.3997 17.0628 24.0818 17.0628 23.7502C17.0628 23.4187 17.1945 23.1008 17.4289 22.8664C17.6634 22.6319 17.9813 22.5002 18.3128 22.5002ZM2.68157 0.788985L2.81282 0.876485L4.94782 2.47649C5.31114 2.7491 5.59333 3.11556 5.76407 3.53649L5.83907 3.75024H21.8966C22.2355 3.75015 22.5708 3.81896 22.8823 3.9525C23.1937 4.08603 23.4748 4.28149 23.7084 4.527C23.942 4.77252 24.1232 5.06296 24.2411 5.38068C24.359 5.69841 24.411 6.03678 24.3941 6.37523L24.3778 6.56024L23.8066 11.129C23.6351 12.5039 23.0117 13.7829 22.0342 14.7648C21.0567 15.7468 19.7807 16.3762 18.4066 16.554L18.1241 16.5827L8.98282 17.3452L9.30782 18.7502H20.1878C20.5064 18.7506 20.8129 18.8726 21.0445 19.0913C21.2762 19.31 21.4156 19.6089 21.4343 19.927C21.453 20.245 21.3495 20.5582 21.145 20.8025C20.9405 21.0468 20.6504 21.2039 20.3341 21.2415L20.1878 21.2502H9.30782C8.77732 21.2503 8.26055 21.0817 7.83225 20.7686C7.40395 20.4556 7.08632 20.0145 6.92532 19.509L6.87157 19.3127L3.44657 4.47523L1.31282 2.87524C1.06894 2.69245 0.900243 2.42685 0.838458 2.1284C0.776672 1.82995 0.826054 1.51922 0.977315 1.25462C1.12858 0.990031 1.3713 0.789818 1.65983 0.691636C1.94835 0.593455 2.26281 0.60407 2.54407 0.721485L2.68157 0.788985ZM21.8966 6.25024H6.42157L8.41532 14.8827L17.9153 14.0915C18.7727 14.0201 19.5795 13.6561 20.2004 13.0605C20.8213 12.4649 21.2184 11.6739 21.3253 10.8202L21.8966 6.25024Z" fill="black"/>
</svg>
