<svg width="27" height="25" viewBox="0 0 27 25" fill="none" xmlns="http://www.w3.org/2000/svg">
<path d="M13.464 6.33008C12.6743 6.33008 11.9024 6.54999 11.2459 6.962C10.5893 7.37401 10.0775 7.95961 9.77535 8.64476C9.47317 9.3299 9.3941 10.0838 9.54815 10.8112C9.70221 11.5385 10.0825 12.2066 10.6408 12.731C11.1992 13.2554 11.9106 13.6125 12.6851 13.7572C13.4596 13.9019 14.2623 13.8276 14.9919 13.5438C15.7214 13.26 16.345 12.7794 16.7837 12.1628C17.2224 11.5462 17.4566 10.8213 17.4566 10.0797C17.4566 9.08521 17.0359 8.13149 16.2872 7.42831C15.5384 6.72512 14.5229 6.33008 13.464 6.33008ZM13.464 12.3294C12.9902 12.3294 12.5271 12.1975 12.1331 11.9503C11.7392 11.7031 11.4321 11.3517 11.2508 10.9406C11.0695 10.5295 11.0221 10.0772 11.1145 9.64076C11.2069 9.20435 11.4351 8.80348 11.7701 8.48885C12.1051 8.17421 12.532 7.95995 12.9967 7.87314C13.4613 7.78633 13.943 7.83088 14.3807 8.00116C14.8185 8.17144 15.1926 8.4598 15.4558 8.82977C15.719 9.19974 15.8595 9.6347 15.8595 10.0797C15.8588 10.6761 15.6062 11.248 15.1571 11.6697C14.708 12.0915 14.0991 12.3287 13.464 12.3294Z" fill="black"/>
<path d="M13.4639 1.83057C11.2528 1.83057 9.09144 2.44631 7.25304 3.59994C5.41463 4.75356 3.98176 6.39326 3.13564 8.31167C2.28951 10.2301 2.06813 12.341 2.49948 14.3776C2.93083 16.4142 3.99554 18.2849 5.55898 19.7532C7.12242 21.2215 9.11436 22.2214 11.2829 22.6265C13.4515 23.0316 15.6992 22.8237 17.7419 22.029C19.7847 21.2344 21.5306 19.8888 22.759 18.1622C23.9874 16.4357 24.643 14.4059 24.643 12.3294C24.6397 9.54589 23.4608 6.8773 21.365 4.90907C19.2693 2.94083 16.4277 1.8337 13.4639 1.83057ZM8.67278 20.1109V19.0786C8.67348 18.4822 8.92609 17.9103 9.37519 17.4886C9.82429 17.0668 10.4332 16.8295 11.0683 16.8289H15.8594C16.4945 16.8295 17.1034 17.0668 17.5525 17.4886C18.0016 17.9103 18.2542 18.4822 18.2549 19.0786V20.1109C16.801 20.9082 15.1475 21.3284 13.4639 21.3284C11.7802 21.3284 10.1267 20.9082 8.67278 20.1109ZM19.846 19.023C19.8301 18.0393 19.4033 17.1008 18.6576 16.4099C17.9119 15.7189 16.907 15.3307 15.8594 15.3291H11.0683C10.0207 15.3307 9.01582 15.7189 8.27011 16.4099C7.5244 17.1008 7.09762 18.0393 7.08174 19.023C5.63369 17.8087 4.61252 16.21 4.15346 14.4385C3.6944 12.667 3.8191 10.8064 4.51104 9.103C5.20298 7.39958 6.42953 5.93371 8.02828 4.8995C9.62702 3.86529 11.5225 3.31152 13.4639 3.31152C15.4052 3.31152 17.3007 3.86529 18.8994 4.8995C20.4982 5.93371 21.7247 7.39958 22.4167 9.103C23.1086 10.8064 23.2333 12.667 22.7743 14.4385C22.3152 16.21 21.294 17.8087 19.846 19.023Z" fill="black"/>
</svg>
