<svg width="14" height="15" viewBox="0 0 14 15" fill="none" xmlns="http://www.w3.org/2000/svg">
<path d="M6.54256 9.00963C8.02794 9.00963 9.24133 7.80321 9.24133 6.31088C9.24133 4.81858 8.02794 3.61914 6.54256 3.61914C5.0572 3.61914 3.84382 4.82556 3.84382 6.31786C3.84382 7.81019 5.0572 9.00963 6.54256 9.00963ZM6.54256 4.66517C7.44912 4.66517 8.19531 5.40436 8.19531 6.31786C8.19531 7.23139 7.45609 7.97058 6.54256 7.97058C5.62903 7.97058 4.88984 7.23139 4.88984 6.31786C4.88984 5.40436 5.63601 4.66517 6.54256 4.66517Z" fill="#808080"/>
<path d="M6.54335 15C7.57542 15 8.61448 14.6095 9.42341 13.8354C11.4806 11.855 13.754 8.69596 12.8962 4.93724C12.1222 1.5272 9.14447 0 6.54335 0H6.53637C3.93526 0 0.957572 1.5272 0.183514 4.94421C-0.667253 8.70293 1.60611 11.855 3.66329 13.8354C4.47222 14.6095 5.51127 15 6.54335 15ZM6.54335 1.04603C8.57264 1.04603 11.1807 2.12692 11.8711 5.16736C12.6242 8.45188 10.5601 11.2831 8.69119 13.0753C7.48477 14.2399 5.59495 14.2399 4.38853 13.0753C2.52661 11.2831 0.462453 8.45188 1.20164 5.16736C1.89899 2.12692 4.51406 1.04603 6.54335 1.04603Z" fill="#808080"/>
</svg>
