<svg width="13" height="13" viewBox="0 0 13 13" fill="none" xmlns="http://www.w3.org/2000/svg">
<path d="M6.50024 13C2.91466 13 0.000244141 10.0856 0.000244141 6.5C0.000244141 2.91442 2.91466 0 6.50024 0C10.0858 0 13.0002 2.91442 13.0002 6.5C13.0002 10.0856 10.0858 13 6.50024 13ZM6.50024 0.906977C3.41652 0.906977 0.907221 3.41628 0.907221 6.5C0.907221 9.58372 3.41652 12.093 6.50024 12.093C9.58397 12.093 12.0933 9.58372 12.0933 6.5C12.0933 3.41628 9.58397 0.906977 6.50024 0.906977Z" fill="#808080"/>
<path d="M8.74328 8.87619C8.66467 8.87619 8.58607 8.85805 8.51351 8.80968L6.63909 7.69107C6.17351 7.41293 5.82886 6.80223 5.82886 6.2641V3.78503C5.82886 3.53712 6.03444 3.33154 6.28235 3.33154C6.53025 3.33154 6.73583 3.53712 6.73583 3.78503V6.2641C6.73583 6.48177 6.91723 6.80223 7.10467 6.91107L8.97909 8.02968C9.19676 8.15665 9.26328 8.43479 9.1363 8.65247C9.0456 8.79758 8.89444 8.87619 8.74328 8.87619Z" fill="#808080"/>
</svg>
