<svg width="365" height="365" viewBox="0 0 365 365" fill="none" xmlns="http://www.w3.org/2000/svg">
<rect width="363.879" height="363.879" transform="translate(0.242188 0.911255)" fill=""/>
<path d="M190.155 106.571L281.263 173.518H99.046L190.155 106.571Z" fill="#FF5A6E"/>
<path d="M190.155 125.698L286.785 183.082H93.5242L190.155 125.698Z" fill="white"/>
<path d="M132.771 112.946L223.879 179.894H41.6619L132.771 112.946Z" fill="#FF5A6E"/>
<path d="M132.771 132.075L229.401 189.458H36.1402L132.771 132.075Z" fill="white"/>
<path d="M14.4329 237.954L38.534 184.396H48.3274L72.505 237.954H62.0995L41.3649 189.676H45.3435L24.6854 237.954H14.4329ZM25.527 225.559L28.2049 217.755H57.1262L59.8041 225.559H25.527ZM79.3163 237.954V184.396H87.5031L121.092 225.636H117.036V184.396H126.906V237.954H118.72L85.1312 196.715H89.1863V237.954H79.3163ZM166.277 238.719C162.094 238.719 158.243 238.056 154.724 236.73C151.255 235.353 148.22 233.44 145.619 230.992C143.017 228.492 141.003 225.559 139.574 222.193C138.146 218.826 137.432 215.154 137.432 211.175C137.432 207.197 138.146 203.524 139.574 200.158C141.003 196.791 143.017 193.884 145.619 191.435C148.271 188.936 151.357 187.023 154.877 185.697C158.396 184.32 162.247 183.631 166.43 183.631C170.97 183.631 175.05 184.371 178.672 185.85C182.344 187.329 185.43 189.497 187.93 192.354L181.656 198.474C179.564 196.383 177.295 194.853 174.846 193.884C172.449 192.864 169.796 192.354 166.889 192.354C164.084 192.354 161.482 192.813 159.085 193.731C156.687 194.649 154.622 195.95 152.887 197.633C151.153 199.316 149.801 201.305 148.832 203.601C147.914 205.896 147.455 208.421 147.455 211.175C147.455 213.879 147.914 216.378 148.832 218.673C149.801 220.969 151.153 222.984 152.887 224.718C154.622 226.401 156.662 227.702 159.008 228.62C161.355 229.538 163.956 229.997 166.812 229.997C169.465 229.997 172.015 229.589 174.464 228.773C176.963 227.906 179.335 226.478 181.579 224.488L187.241 231.91C184.436 234.154 181.171 235.863 177.448 237.036C173.775 238.158 170.051 238.719 166.277 238.719ZM177.83 230.609V210.563H187.241V231.91L177.83 230.609ZM192.785 237.954L216.886 184.396H226.68L250.857 237.954H240.452L219.717 189.676H223.696L203.038 237.954H192.785ZM203.879 225.559L206.557 217.755H235.478L238.156 225.559H203.879ZM257.669 237.954V184.396H279.704C284.448 184.396 288.503 185.161 291.869 186.692C295.287 188.222 297.914 190.415 299.75 193.272C301.586 196.128 302.504 199.52 302.504 203.448C302.504 207.375 301.586 210.767 299.75 213.624C297.914 216.429 295.287 218.597 291.869 220.127C288.503 221.606 284.448 222.346 279.704 222.346H263.177L267.615 217.832V237.954H257.669ZM292.711 237.954L279.168 218.52H289.803L303.422 237.954H292.711ZM267.615 218.903L263.177 214.159H279.245C283.631 214.159 286.921 213.216 289.115 211.328C291.359 209.441 292.481 206.814 292.481 203.448C292.481 200.03 291.359 197.403 289.115 195.567C286.921 193.731 283.631 192.813 279.245 192.813H263.177L267.615 187.916V218.903ZM310.33 238.178C309.607 238.178 308.991 237.933 308.481 237.444C307.971 236.934 307.716 236.297 307.716 235.531C307.716 234.724 307.971 234.086 308.481 233.619C308.991 233.13 309.607 232.885 310.33 232.885C311.052 232.885 311.669 233.13 312.179 233.619C312.689 234.086 312.944 234.724 312.944 235.531C312.944 236.297 312.689 236.934 312.179 237.444C311.669 237.933 311.052 238.178 310.33 238.178ZM320.72 237.954V219.145H313.324V215.639H332.26V219.145H324.864V237.954H320.72ZM335.371 237.954V215.639H338.782L348.537 231.929H346.752L356.347 215.639H359.759L359.79 237.954H355.869L355.837 221.791H356.666L348.505 235.404H346.656L338.367 221.791H339.324V237.954H335.371Z" fill="#0D2945"/>
</svg>
