<svg xmlns="http://www.w3.org/2000/svg" width="23" height="23" viewBox="0 0 23 23" fill="none">
  <path opacity="0.9" d="M14 7.5V5.5C14 4.96957 13.7893 4.46086 13.4142 4.08579C13.0391 3.71071 12.5304 3.5 12 3.5H5C4.46957 3.5 3.96086 3.71071 3.58579 4.08579C3.21071 4.46086 3 4.96957 3 5.5V17.5C3 18.0304 3.21071 18.5391 3.58579 18.9142C3.96086 19.2893 4.46957 19.5 5 19.5H12C12.5304 19.5 13.0391 19.2893 13.4142 18.9142C13.7893 18.5391 14 18.0304 14 17.5V15.5M9 11.5H21M21 11.5L18 8.5M21 11.5L18 14.5" stroke="white" stroke-width="1.6" stroke-linecap="round" stroke-linejoin="round"/>
</svg>