<svg xmlns="http://www.w3.org/2000/svg" width="23" height="23" viewBox="0 0 23 23" fill="none">
  <path opacity="0.9" d="M18.6514 5.32294C18.2253 4.90361 17.719 4.5709 17.1615 4.34388C16.604 4.11686 16.0063 4 15.4027 4C14.799 4 14.2013 4.11686 13.6439 4.34388C13.0864 4.5709 12.5801 4.90361 12.154 5.32294L11.5 5.97264L10.846 5.32294C10.4199 4.90361 9.91362 4.5709 9.35614 4.34388C8.79866 4.11686 8.20096 4 7.59733 4C6.9937 4 6.39601 4.11686 5.83852 4.34388C5.28104 4.5709 4.77474 4.90361 4.34865 5.32294C2.54807 7.0888 2.43766 10.0708 4.70537 12.3364L11.5 19L18.2946 12.3364C20.5623 10.0708 20.4519 7.0888 18.6514 5.32294Z" stroke="white" stroke-width="1.6" stroke-linecap="round" stroke-linejoin="round"/>
</svg>