<svg xmlns="http://www.w3.org/2000/svg" width="23" height="23" viewBox="0 0 23 23" fill="none">
  <path opacity="0.9" d="M13 4.5H21M13 8.5H18M13 14.5H21M13 18.5H18M3 4.5C3 4.23478 3.10536 3.98043 3.29289 3.79289C3.48043 3.60536 3.73478 3.5 4 3.5H8C8.26522 3.5 8.51957 3.60536 8.70711 3.79289C8.89464 3.98043 9 4.23478 9 4.5V8.5C9 8.76522 8.89464 9.01957 8.70711 9.20711C8.51957 9.39464 8.26522 9.5 8 9.5H4C3.73478 9.5 3.48043 9.39464 3.29289 9.20711C3.10536 9.01957 3 8.76522 3 8.5V4.5ZM3 14.5C3 14.2348 3.10536 13.9804 3.29289 13.7929C3.48043 13.6054 3.73478 13.5 4 13.5H8C8.26522 13.5 8.51957 13.6054 8.70711 13.7929C8.89464 13.9804 9 14.2348 9 14.5V18.5C9 18.7652 8.89464 19.0196 8.70711 19.2071C8.51957 19.3946 8.26522 19.5 8 19.5H4C3.73478 19.5 3.48043 19.3946 3.29289 19.2071C3.10536 19.0196 3 18.7652 3 18.5V14.5Z" stroke="black" stroke-width="1.6" stroke-linecap="round" stroke-linejoin="round"/>
</svg>