
    <svg xmlns="http://www.w3.org/2000/svg" width="23" height="23" viewBox="0 0 23 23" fill="none">
      <g clip-path="url(#clip0_324_1046)">
        <path className='path' opacity="0.9" d="M3 21.3947V19.1842C3 18.0117 3.46579 16.8872 4.2949 16.0581C5.124 15.2289 6.24852 14.7632 7.42105 14.7632H11.2895M5.21053 5.92105C5.21053 7.09359 5.67631 8.2181 6.50542 9.04721C7.33453 9.87632 8.45904 10.3421 9.63158 10.3421C10.8041 10.3421 11.9286 9.87632 12.7577 9.04721C13.5868 8.2181 14.0526 7.09359 14.0526 5.92105C14.0526 4.74852 13.5868 3.624 12.7577 2.7949C11.9286 1.96579 10.8041 1.5 9.63158 1.5C8.45904 1.5 7.33453 1.96579 6.50542 2.7949C5.67631 3.624 5.21053 4.74852 5.21053 5.92105ZM16.7274 15.4374C16.9429 15.2218 17.1988 15.0509 17.4804 14.9342C17.762 14.8176 18.0639 14.7575 18.3687 14.7575C18.6735 14.7575 18.9753 14.8176 19.257 14.9342C19.5386 15.0509 19.7945 15.2218 20.01 15.4374C20.2255 15.6529 20.3965 15.9088 20.5132 16.1904C20.6298 16.472 20.6899 16.7739 20.6899 17.0787C20.6899 17.3835 20.6298 17.6853 20.5132 17.967C20.3965 18.2486 20.2255 18.5045 20.01 18.72L16.2632 22.5H12.9474V19.1842L16.7274 15.4374Z" stroke="black" stroke-width="1.6" stroke-linecap="round" stroke-linejoin="round" />
      </g>
      <defs>
        <clipPath id="clip0_324_1046">
          <rect width="23" height="23" fill="white" />
        </clipPath>
      </defs>
    </svg>
 