<svg width="70" height="68" viewBox="0 0 70 68" fill="none" xmlns="http://www.w3.org/2000/svg">
<path d="M13.4291 62.9982C12.3782 62.9309 11.3974 62.4628 10.7006 61.6959C10.0037 60.9291 9.64751 59.9258 9.70957 58.9049C9.70957 56.7065 10.9818 54.7174 12.545 52.4771C12.6437 52.3346 12.7769 52.2179 12.9329 52.1371C13.089 52.0564 13.2631 52.0142 13.4399 52.0142C13.6167 52.0142 13.7908 52.0564 13.9469 52.1371C14.1029 52.2179 14.2361 52.3346 14.3347 52.4771C15.9196 54.7803 17.1486 56.7379 17.1486 58.9049C17.2107 59.9258 16.8545 60.9291 16.1577 61.6959C15.4608 62.4628 14.48 62.9309 13.4291 62.9982Z" stroke="#222222" stroke-miterlimit="10"/>
<path d="M44.9642 11.0107H35.908V18.5587H44.9642V11.0107Z" stroke="#222222" stroke-linecap="round" stroke-linejoin="round"/>
<path d="M45.1906 37.1408H35.7031C34.6028 37.1428 33.5434 36.7362 32.7417 36.0045C31.9399 35.2727 31.4566 34.2711 31.3906 33.2046C31.3852 33.1209 31.3852 33.037 31.3906 32.9533V22.7463C31.3848 22.6592 31.3848 22.5717 31.3906 22.4846C31.4566 21.4181 31.9399 20.4165 32.7417 19.6847C33.5434 18.953 34.6028 18.5464 35.7031 18.5483H45.1906C46.2909 18.5464 47.3503 18.953 48.152 19.6847C48.9537 20.4165 49.4371 21.4181 49.5031 22.4846C49.5031 22.5683 49.5031 22.6521 49.5031 22.7358V32.9533C49.5031 33.0371 49.5031 33.1208 49.5031 33.2046C49.4371 34.2711 48.9537 35.2727 48.152 36.0045C47.3503 36.7362 46.2909 37.1428 45.1906 37.1408Z" stroke="#222222" stroke-linecap="round" stroke-linejoin="round"/>
<path d="M49.4924 22.4844C49.4924 22.5681 49.4924 22.6519 49.4924 22.7356V32.9531C49.4924 33.0369 49.4924 33.1206 49.4924 33.2044H60.2737C60.5596 33.2044 60.8338 33.0941 61.036 32.8978C61.2382 32.7014 61.3518 32.4351 61.3518 32.1575V23.5312C61.3518 23.2536 61.2382 22.9873 61.036 22.791C60.8338 22.5947 60.5596 22.4844 60.2737 22.4844H49.4924ZM31.3907 33.1939C31.3858 33.1137 31.3858 33.0333 31.3907 32.9531V22.7461C31.3849 22.6589 31.3849 22.5715 31.3907 22.4844H18.9923C17.5373 22.4844 16.0966 22.7628 14.7526 23.3038C13.4085 23.8447 12.1874 24.6376 11.1591 25.6371C10.1308 26.6366 9.31547 27.823 8.75966 29.1286C8.20386 30.4343 7.91851 31.8335 7.91993 33.2463V45.0864C7.91993 45.3641 8.03352 45.6303 8.2357 45.8267C8.43789 46.023 8.71212 46.1333 8.99805 46.1333H17.8602C18.1462 46.1333 18.4204 46.023 18.6226 45.8267C18.8248 45.6303 18.9384 45.3641 18.9384 45.0864V36.0938C18.9384 35.3136 19.2575 34.5653 19.8257 34.0136C20.3938 33.462 21.1644 33.152 21.9679 33.152H31.3907V33.1939Z" stroke="#222222" stroke-linecap="round" stroke-linejoin="round"/>
<path d="M28.0483 7.98527V8.01668C28.0483 9.67025 29.4288 11.0107 31.1318 11.0107L49.7618 11.0107C51.4647 11.0107 52.8452 9.67025 52.8452 8.01668V7.98527C52.8452 6.3317 51.4647 4.99121 49.7618 4.99121L31.1318 4.99121C29.4288 4.99121 28.0483 6.3317 28.0483 7.98527Z" stroke="#222222" stroke-linecap="round" stroke-linejoin="round"/>
</svg>
